<svg id="visual" viewBox="0 0 900 600" width="900" height="600" xmlns="http://www.w3.org/2000/svg" xmlns:xlink="http://www.w3.org/1999/xlink" version="1.1"><rect x="0" y="0" width="900" height="600" fill="#001220"></rect><defs><linearGradient id="grad1_0" x1="33.3%" y1="0%" x2="100%" y2="100%"><stop offset="20%" stop-color="#0066ff" stop-opacity="1"></stop><stop offset="80%" stop-color="#0066ff" stop-opacity="1"></stop></linearGradient></defs><defs><linearGradient id="grad1_1" x1="33.3%" y1="0%" x2="100%" y2="100%"><stop offset="20%" stop-color="#0066ff" stop-opacity="1"></stop><stop offset="80%" stop-color="#0059d1" stop-opacity="1"></stop></linearGradient></defs><defs><linearGradient id="grad1_2" x1="33.3%" y1="0%" x2="100%" y2="100%"><stop offset="20%" stop-color="#0049a3" stop-opacity="1"></stop><stop offset="80%" stop-color="#0059d1" stop-opacity="1"></stop></linearGradient></defs><defs><linearGradient id="grad1_3" x1="33.3%" y1="0%" x2="100%" y2="100%"><stop offset="20%" stop-color="#0049a3" stop-opacity="1"></stop><stop offset="80%" stop-color="#003775" stop-opacity="1"></stop></linearGradient></defs><defs><linearGradient id="grad1_4" x1="33.3%" y1="0%" x2="100%" y2="100%"><stop offset="20%" stop-color="#002548" stop-opacity="1"></stop><stop offset="80%" stop-color="#003775" stop-opacity="1"></stop></linearGradient></defs><defs><linearGradient id="grad1_5" x1="33.3%" y1="0%" x2="100%" y2="100%"><stop offset="20%" stop-color="#002548" stop-opacity="1"></stop><stop offset="80%" stop-color="#001220" stop-opacity="1"></stop></linearGradient></defs><defs><linearGradient id="grad2_0" x1="0%" y1="0%" x2="66.7%" y2="100%"><stop offset="20%" stop-color="#0066ff" stop-opacity="1"></stop><stop offset="80%" stop-color="#0066ff" stop-opacity="1"></stop></linearGradient></defs><defs><linearGradient id="grad2_1" x1="0%" y1="0%" x2="66.7%" y2="100%"><stop offset="20%" stop-color="#0059d1" stop-opacity="1"></stop><stop offset="80%" stop-color="#0066ff" stop-opacity="1"></stop></linearGradient></defs><defs><linearGradient id="grad2_2" x1="0%" y1="0%" x2="66.7%" y2="100%"><stop offset="20%" stop-color="#0059d1" stop-opacity="1"></stop><stop offset="80%" stop-color="#0049a3" stop-opacity="1"></stop></linearGradient></defs><defs><linearGradient id="grad2_3" x1="0%" y1="0%" x2="66.7%" y2="100%"><stop offset="20%" stop-color="#003775" stop-opacity="1"></stop><stop offset="80%" stop-color="#0049a3" stop-opacity="1"></stop></linearGradient></defs><defs><linearGradient id="grad2_4" x1="0%" y1="0%" x2="66.7%" y2="100%"><stop offset="20%" stop-color="#003775" stop-opacity="1"></stop><stop offset="80%" stop-color="#002548" stop-opacity="1"></stop></linearGradient></defs><defs><linearGradient id="grad2_5" x1="0%" y1="0%" x2="66.7%" y2="100%"><stop offset="20%" stop-color="#001220" stop-opacity="1"></stop><stop offset="80%" stop-color="#002548" stop-opacity="1"></stop></linearGradient></defs><g transform="translate(900, 0)"><path d="M0 486.7C-61.5 475.3 -123.1 463.9 -183.3 442.5C-243.5 421.2 -302.4 389.9 -344.2 344.2C-385.9 298.5 -410.5 238.5 -431.5 178.7C-452.4 119 -469.6 59.5 -486.7 0L0 0Z" fill="#001c33"></path><path d="M0 405.6C-51.3 396.1 -102.6 386.6 -152.8 368.8C-202.9 351 -252 324.9 -286.8 286.8C-321.6 248.8 -342.1 198.7 -359.5 148.9C-377 99.1 -391.3 49.6 -405.6 0L0 0Z" fill="#002e5e"></path><path d="M0 324.5C-41 316.9 -82.1 309.3 -122.2 295C-162.4 280.8 -201.6 259.9 -229.5 229.5C-257.3 199 -273.7 159 -287.6 119.1C-301.6 79.3 -313 39.7 -324.5 0L0 0Z" fill="#00408b"></path><path d="M0 243.4C-30.8 237.7 -61.5 232 -91.7 221.3C-121.8 210.6 -151.2 194.9 -172.1 172.1C-193 149.3 -205.3 119.2 -215.7 89.4C-226.2 59.5 -234.8 29.7 -243.4 0L0 0Z" fill="#0051ba"></path><path d="M0 162.2C-20.5 158.4 -41 154.6 -61.1 147.5C-81.2 140.4 -100.8 130 -114.7 114.7C-128.6 99.5 -136.8 79.5 -143.8 59.6C-150.8 39.7 -156.5 19.8 -162.2 0L0 0Z" fill="#0060e8"></path><path d="M0 81.1C-10.3 79.2 -20.5 77.3 -30.6 73.8C-40.6 70.2 -50.4 65 -57.4 57.4C-64.3 49.8 -68.4 39.7 -71.9 29.8C-75.4 19.8 -78.3 9.9 -81.1 0L0 0Z" fill="#0066ff"></path></g><g transform="translate(0, 600)"><path d="M0 -486.7C61.2 -471.7 122.5 -456.7 179.5 -433.3C236.5 -409.9 289.3 -378.1 336.6 -336.6C383.9 -295.1 425.6 -244 449.7 -186.3C473.8 -128.6 480.3 -64.3 486.7 0L0 0Z" fill="#001c33"></path><path d="M0 -405.6C51 -393.1 102 -380.6 149.6 -361.1C197.1 -341.6 241.1 -315 280.5 -280.5C319.9 -245.9 354.7 -203.3 374.7 -155.2C394.8 -107.1 400.2 -53.6 405.6 0L0 0Z" fill="#002e5e"></path><path d="M0 -324.5C40.8 -314.5 81.6 -304.5 119.7 -288.9C157.7 -273.3 192.9 -252 224.4 -224.4C255.9 -196.7 283.7 -162.7 299.8 -124.2C315.9 -85.7 320.2 -42.9 324.5 0L0 0Z" fill="#00408b"></path><path d="M0 -243.4C30.6 -235.9 61.2 -228.4 89.7 -216.6C118.2 -204.9 144.7 -189 168.3 -168.3C191.9 -147.6 212.8 -122 224.8 -93.1C236.9 -64.3 240.1 -32.1 243.4 0L0 0Z" fill="#0051ba"></path><path d="M0 -162.2C20.4 -157.2 40.8 -152.2 59.8 -144.4C78.8 -136.6 96.4 -126 112.2 -112.2C128 -98.4 141.9 -81.3 149.9 -62.1C157.9 -42.9 160.1 -21.4 162.2 0L0 0Z" fill="#0060e8"></path><path d="M0 -81.1C10.2 -78.6 20.4 -76.1 29.9 -72.2C39.4 -68.3 48.2 -63 56.1 -56.1C64 -49.2 70.9 -40.7 74.9 -31C79 -21.4 80 -10.7 81.1 0L0 0Z" fill="#0066ff"></path></g></svg>